<svg width="44" height="44" viewBox="0 0 44 44" fill="none" xmlns="http://www.w3.org/2000/svg">
<path d="M26.6667 16.6667H28M18 12.6667H26C28.9455 12.6667 31.3333 15.0546 31.3333 18.0001V26.0001C31.3333 28.9456 28.9455 31.3334 26 31.3334H18C15.0545 31.3334 12.6667 28.9456 12.6667 26.0001V18.0001C12.6667 15.0546 15.0545 12.6667 18 12.6667ZM22 26.0001C19.7909 26.0001 18 24.2092 18 22.0001C18 19.7909 19.7909 18.0001 22 18.0001C24.2091 18.0001 26 19.7909 26 22.0001C26 24.2092 24.2091 26.0001 22 26.0001Z" stroke="black"/>
</svg>
