<svg width="44" height="44" viewBox="0 0 44 44" fill="none" xmlns="http://www.w3.org/2000/svg">
<path d="M14.533 27.6006L14.9803 27.8242L15.1186 27.5476L14.9328 27.3003L14.533 27.6006ZM16.3994 29.467L16.6998 29.0673L16.4525 28.8815L16.1758 29.0198L16.3994 29.467ZM12.6667 31.3334L12.2194 31.1098C12.1232 31.3023 12.1609 31.5348 12.3131 31.687C12.4653 31.8391 12.6978 31.8769 12.8903 31.7806L12.6667 31.3334ZM18 18.0001L17.7226 17.5841C17.5835 17.6768 17.5 17.8329 17.5 18.0001H18ZM26 26.0001V26.5001C26.1672 26.5001 26.3233 26.4165 26.416 26.2774L26 26.0001ZM20.339 18.7008L20.8322 18.6186L20.339 18.7008ZM20.5249 19.8164L20.0317 19.8986L20.5249 19.8164ZM19.9493 21.145L20.2267 21.561L19.9493 21.145ZM25.2993 23.6611L25.3815 23.1679H25.3815L25.2993 23.6611ZM24.1837 23.4751L24.1015 23.9683V23.9683L24.1837 23.4751ZM22.8551 24.0507L22.4391 23.7734L22.8551 24.0507ZM12.1667 22.0001C12.1667 24.2135 12.8985 26.2573 14.1333 27.9009L14.9328 27.3003C13.8237 25.8239 13.1667 23.9895 13.1667 22.0001H12.1667ZM22 12.1667C16.5692 12.1667 12.1667 16.5693 12.1667 22.0001H13.1667C13.1667 17.1216 17.1215 13.1667 22 13.1667V12.1667ZM31.8333 22.0001C31.8333 16.5693 27.4308 12.1667 22 12.1667V13.1667C26.8785 13.1667 30.8333 17.1216 30.8333 22.0001H31.8333ZM22 31.8334C27.4308 31.8334 31.8333 27.4309 31.8333 22.0001H30.8333C30.8333 26.8786 26.8785 30.8334 22 30.8334V31.8334ZM16.0991 29.8668C17.7427 31.1015 19.7866 31.8334 22 31.8334V30.8334C20.0106 30.8334 18.1761 30.1764 16.6998 29.0673L16.0991 29.8668ZM12.8903 31.7806L16.6231 29.9142L16.1758 29.0198L12.443 30.8862L12.8903 31.7806ZM14.0858 27.377L12.2194 31.1098L13.1139 31.557L14.9803 27.8242L14.0858 27.377ZM17.5 18.0001V19.3334H18.5V18.0001H17.5ZM24.6667 26.5001H26V25.5001H24.6667V26.5001ZM17.5 19.3334C17.5 23.2915 20.7086 26.5001 24.6667 26.5001V25.5001C21.2609 25.5001 18.5 22.7392 18.5 19.3334H17.5ZM18.2773 18.4161L18.5616 18.2266L18.0069 17.3946L17.7226 17.5841L18.2773 18.4161ZM19.8458 18.783L20.0317 19.8986L21.0181 19.7342L20.8322 18.6186L19.8458 18.783ZM19.672 20.7289L18.3893 21.5841L18.944 22.4161L20.2267 21.561L19.672 20.7289ZM20.0317 19.8986C20.0856 20.222 19.9448 20.547 19.672 20.7289L20.2267 21.561C20.827 21.1608 21.1367 20.4458 21.0181 19.7342L20.0317 19.8986ZM18.5616 18.2266C19.0647 17.8912 19.7464 18.1865 19.8458 18.783L20.8322 18.6186C20.6135 17.3063 19.1138 16.6566 18.0069 17.3946L18.5616 18.2266ZM26.416 26.2774L26.6055 25.9932L25.7734 25.4385L25.584 25.7227L26.416 26.2774ZM25.3815 23.1679L24.2659 22.9819L24.1015 23.9683L25.2171 24.1543L25.3815 23.1679ZM22.4391 23.7734L21.584 25.0561L22.416 25.6108L23.2711 24.3281L22.4391 23.7734ZM24.2659 22.9819C23.5543 22.8633 22.8393 23.1731 22.4391 23.7734L23.2711 24.3281C23.453 24.0552 23.778 23.9144 24.1015 23.9683L24.2659 22.9819ZM26.6055 25.9932C27.3435 24.8863 26.6937 23.3866 25.3815 23.1679L25.2171 24.1543C25.8136 24.2537 26.1089 24.9354 25.7734 25.4385L26.6055 25.9932Z" fill="black"/>
</svg>
